<svg xmlns="http://www.w3.org/2000/svg" width="150" height="150" viewBox="0 0 150 150" fill="none">
  <circle cx="75" cy="75" r="70" stroke="#0466C8" stroke-opacity="0.4" stroke-width="10"/>
  <mask id="path-2-inside-1_1_40" fill="white">
    <path d="M75 12.6562C75 10.8441 76.4701 9.36644 78.28 9.45695C94.1376 10.25 109.214 16.7721 120.669 27.873C132.912 39.7368 140.057 55.8992 140.593 72.9387C141.128 89.9782 135.012 106.557 123.538 119.166C112.803 130.965 98.1655 138.421 82.3891 140.208C80.5884 140.412 79.0284 139.029 78.9146 137.221C78.8008 135.412 80.1768 133.863 81.9763 133.649C96.0506 131.975 109.096 125.287 118.684 114.75C129.011 103.402 134.515 88.4803 134.033 73.1448C133.551 57.8093 127.121 43.2631 116.102 32.5857C105.872 22.6715 92.4315 16.8152 78.2799 16.0286C76.4705 15.928 75 14.4684 75 12.6562Z"/>
  </mask>
  <path d="M75 12.6562C75 10.8441 76.4701 9.36644 78.28 9.45695C94.1376 10.25 109.214 16.7721 120.669 27.873C132.912 39.7368 140.057 55.8992 140.593 72.9387C141.128 89.9782 135.012 106.557 123.538 119.166C112.803 130.965 98.1655 138.421 82.3891 140.208C80.5884 140.412 79.0284 139.029 78.9146 137.221C78.8008 135.412 80.1768 133.863 81.9763 133.649C96.0506 131.975 109.096 125.287 118.684 114.75C129.011 103.402 134.515 88.4803 134.033 73.1448C133.551 57.8093 127.121 43.2631 116.102 32.5857C105.872 22.6715 92.4315 16.8152 78.2799 16.0286C76.4705 15.928 75 14.4684 75 12.6562Z" stroke="#0466C8" stroke-width="16" mask="url(#path-2-inside-1_1_40)"/>
</svg>