<svg width="170" height="166" viewBox="0 0 170 166" fill="none" xmlns="http://www.w3.org/2000/svg">
<path d="M153.25 125.99L152.77 125.18L154.68 123.42H151.58V122.52H155.98V123.4L154.13 125.11C154.657 125.11 155.12 125.283 155.52 125.63C155.927 125.977 156.13 126.46 156.13 127.08C156.13 127.653 155.92 128.143 155.5 128.55C155.08 128.957 154.507 129.16 153.78 129.16C153.067 129.16 152.493 128.963 152.06 128.57C151.633 128.17 151.403 127.687 151.37 127.12L152.33 126.9C152.35 127.32 152.493 127.66 152.76 127.92C153.033 128.173 153.37 128.3 153.77 128.3C154.197 128.3 154.53 128.187 154.77 127.96C155.017 127.727 155.14 127.44 155.14 127.1C155.14 126.707 155.01 126.407 154.75 126.2C154.49 125.993 154.18 125.89 153.82 125.89C153.627 125.89 153.437 125.923 153.25 125.99ZM156.827 127.24L157.767 126.96C157.794 127.36 157.941 127.683 158.207 127.93C158.481 128.177 158.821 128.3 159.227 128.3C159.621 128.3 159.951 128.18 160.217 127.94C160.484 127.7 160.617 127.383 160.617 126.99C160.617 126.563 160.484 126.233 160.217 126C159.951 125.767 159.617 125.65 159.217 125.65C158.731 125.65 158.337 125.807 158.037 126.12C157.944 126.087 157.791 126.027 157.577 125.94C157.364 125.853 157.197 125.787 157.077 125.74L157.917 122.52H161.337V123.42H158.567L158.087 125.28C158.374 124.96 158.814 124.8 159.407 124.8C160.054 124.8 160.581 124.993 160.987 125.38C161.401 125.767 161.607 126.29 161.607 126.95C161.607 127.577 161.387 128.103 160.947 128.53C160.507 128.95 159.934 129.16 159.227 129.16C158.561 129.16 158.004 128.973 157.557 128.6C157.117 128.227 156.874 127.773 156.827 127.24ZM163.408 123.46C163.262 123.607 163.188 123.793 163.188 124.02C163.188 124.247 163.262 124.437 163.408 124.59C163.555 124.737 163.738 124.81 163.958 124.81C164.178 124.81 164.362 124.737 164.508 124.59C164.655 124.437 164.728 124.247 164.728 124.02C164.728 123.793 164.655 123.607 164.508 123.46C164.362 123.313 164.178 123.24 163.958 123.24C163.738 123.24 163.555 123.313 163.408 123.46ZM162.358 124.02C162.358 123.587 162.515 123.217 162.828 122.91C163.148 122.603 163.525 122.45 163.958 122.45C164.392 122.45 164.768 122.603 165.088 122.91C165.408 123.217 165.568 123.587 165.568 124.02C165.568 124.46 165.408 124.833 165.088 125.14C164.768 125.447 164.392 125.6 163.958 125.6C163.525 125.6 163.148 125.447 162.828 125.14C162.515 124.833 162.358 124.46 162.358 124.02ZM167.368 126.94C167.222 127.087 167.148 127.273 167.148 127.5C167.148 127.727 167.222 127.917 167.368 128.07C167.515 128.217 167.698 128.29 167.918 128.29C168.138 128.29 168.322 128.217 168.468 128.07C168.615 127.917 168.688 127.727 168.688 127.5C168.688 127.273 168.615 127.087 168.468 126.94C168.322 126.793 168.138 126.72 167.918 126.72C167.698 126.72 167.515 126.793 167.368 126.94ZM166.318 127.5C166.318 127.067 166.475 126.697 166.788 126.39C167.108 126.083 167.485 125.93 167.918 125.93C168.352 125.93 168.728 126.083 169.048 126.39C169.368 126.697 169.528 127.067 169.528 127.5C169.528 127.94 169.368 128.313 169.048 128.62C168.728 128.927 168.352 129.08 167.918 129.08C167.485 129.08 167.108 128.927 166.788 128.62C166.475 128.313 166.318 127.94 166.318 127.5ZM164.078 129H163.158L167.818 122.52H168.718L164.078 129Z" fill="#C89104"/>
<path d="M148.41 33.85L147.43 33.73C147.423 33.67 147.42 33.5833 147.42 33.47C147.42 32.89 147.623 32.3967 148.03 31.99C148.437 31.5767 148.98 31.37 149.66 31.37C150.333 31.37 150.867 31.5633 151.26 31.95C151.653 32.33 151.85 32.8 151.85 33.36C151.85 34.18 151.443 34.8467 150.63 35.36L149.35 36.18C148.89 36.4733 148.627 36.7767 148.56 37.09H151.89V38H147.35C147.363 37.4533 147.487 36.9733 147.72 36.56C147.96 36.1467 148.35 35.7667 148.89 35.42L149.97 34.72C150.563 34.34 150.86 33.89 150.86 33.37C150.86 33.05 150.753 32.78 150.54 32.56C150.327 32.34 150.027 32.23 149.64 32.23C149.233 32.23 148.923 32.3533 148.71 32.6C148.497 32.8467 148.39 33.1667 148.39 33.56C148.39 33.62 148.397 33.7167 148.41 33.85ZM154.283 32.66C153.903 33.06 153.713 33.76 153.713 34.76C153.713 35.76 153.903 36.46 154.283 36.86C154.55 37.14 154.893 37.28 155.313 37.28C155.733 37.28 156.076 37.14 156.343 36.86C156.723 36.46 156.913 35.76 156.913 34.76C156.913 33.76 156.723 33.06 156.343 32.66C156.076 32.38 155.733 32.24 155.313 32.24C154.893 32.24 154.55 32.38 154.283 32.66ZM153.323 37.11C152.936 36.5367 152.743 35.7533 152.743 34.76C152.743 33.7667 152.936 32.9833 153.323 32.41C153.783 31.7167 154.446 31.37 155.313 31.37C156.18 31.37 156.843 31.7167 157.303 32.41C157.69 32.9833 157.883 33.7667 157.883 34.76C157.883 35.7533 157.69 36.5367 157.303 37.11C156.843 37.8033 156.18 38.15 155.313 38.15C154.446 38.15 153.783 37.8033 153.323 37.11ZM159.74 32.46C159.594 32.6067 159.52 32.7933 159.52 33.02C159.52 33.2467 159.594 33.4367 159.74 33.59C159.887 33.7367 160.07 33.81 160.29 33.81C160.51 33.81 160.694 33.7367 160.84 33.59C160.987 33.4367 161.06 33.2467 161.06 33.02C161.06 32.7933 160.987 32.6067 160.84 32.46C160.694 32.3133 160.51 32.24 160.29 32.24C160.07 32.24 159.887 32.3133 159.74 32.46ZM158.69 33.02C158.69 32.5867 158.847 32.2167 159.16 31.91C159.48 31.6033 159.857 31.45 160.29 31.45C160.724 31.45 161.1 31.6033 161.42 31.91C161.74 32.2167 161.9 32.5867 161.9 33.02C161.9 33.46 161.74 33.8333 161.42 34.14C161.1 34.4467 160.724 34.6 160.29 34.6C159.857 34.6 159.48 34.4467 159.16 34.14C158.847 33.8333 158.69 33.46 158.69 33.02ZM163.7 35.94C163.554 36.0867 163.48 36.2733 163.48 36.5C163.48 36.7267 163.554 36.9167 163.7 37.07C163.847 37.2167 164.03 37.29 164.25 37.29C164.47 37.29 164.654 37.2167 164.8 37.07C164.947 36.9167 165.02 36.7267 165.02 36.5C165.02 36.2733 164.947 36.0867 164.8 35.94C164.654 35.7933 164.47 35.72 164.25 35.72C164.03 35.72 163.847 35.7933 163.7 35.94ZM162.65 36.5C162.65 36.0667 162.807 35.6967 163.12 35.39C163.44 35.0833 163.817 34.93 164.25 34.93C164.684 34.93 165.06 35.0833 165.38 35.39C165.7 35.6967 165.86 36.0667 165.86 36.5C165.86 36.94 165.7 37.3133 165.38 37.62C165.06 37.9267 164.684 38.08 164.25 38.08C163.817 38.08 163.44 37.9267 163.12 37.62C162.807 37.3133 162.65 36.94 162.65 36.5ZM160.41 38H159.49L164.15 31.52H165.05L160.41 38Z" fill="#038A39"/>
<path d="M1.41 49.85L0.43 49.73C0.423333 49.67 0.42 49.5833 0.42 49.47C0.42 48.89 0.623333 48.3967 1.03 47.99C1.43667 47.5767 1.98 47.37 2.66 47.37C3.33333 47.37 3.86667 47.5633 4.26 47.95C4.65333 48.33 4.85 48.8 4.85 49.36C4.85 50.18 4.44333 50.8467 3.63 51.36L2.35 52.18C1.89 52.4733 1.62667 52.7767 1.56 53.09H4.89V54H0.35C0.363333 53.4533 0.486667 52.9733 0.72 52.56C0.96 52.1467 1.35 51.7667 1.89 51.42L2.97 50.72C3.56333 50.34 3.86 49.89 3.86 49.37C3.86 49.05 3.75333 48.78 3.54 48.56C3.32667 48.34 3.02667 48.23 2.64 48.23C2.23333 48.23 1.92333 48.3533 1.71 48.6C1.49667 48.8467 1.39 49.1667 1.39 49.56C1.39 49.62 1.39667 49.7167 1.41 49.85ZM7.28297 48.66C6.90297 49.06 6.71297 49.76 6.71297 50.76C6.71297 51.76 6.90297 52.46 7.28297 52.86C7.54964 53.14 7.89297 53.28 8.31297 53.28C8.73297 53.28 9.0763 53.14 9.34297 52.86C9.72297 52.46 9.91297 51.76 9.91297 50.76C9.91297 49.76 9.72297 49.06 9.34297 48.66C9.0763 48.38 8.73297 48.24 8.31297 48.24C7.89297 48.24 7.54964 48.38 7.28297 48.66ZM6.32297 53.11C5.9363 52.5367 5.74297 51.7533 5.74297 50.76C5.74297 49.7667 5.9363 48.9833 6.32297 48.41C6.78297 47.7167 7.4463 47.37 8.31297 47.37C9.17964 47.37 9.84297 47.7167 10.303 48.41C10.6896 48.9833 10.883 49.7667 10.883 50.76C10.883 51.7533 10.6896 52.5367 10.303 53.11C9.84297 53.8033 9.17964 54.15 8.31297 54.15C7.4463 54.15 6.78297 53.8033 6.32297 53.11ZM12.7402 48.46C12.5936 48.6067 12.5202 48.7933 12.5202 49.02C12.5202 49.2467 12.5936 49.4367 12.7402 49.59C12.8869 49.7367 13.0702 49.81 13.2902 49.81C13.5102 49.81 13.6936 49.7367 13.8402 49.59C13.9869 49.4367 14.0602 49.2467 14.0602 49.02C14.0602 48.7933 13.9869 48.6067 13.8402 48.46C13.6936 48.3133 13.5102 48.24 13.2902 48.24C13.0702 48.24 12.8869 48.3133 12.7402 48.46ZM11.6902 49.02C11.6902 48.5867 11.8469 48.2167 12.1602 47.91C12.4802 47.6033 12.8569 47.45 13.2902 47.45C13.7236 47.45 14.1002 47.6033 14.4202 47.91C14.7402 48.2167 14.9002 48.5867 14.9002 49.02C14.9002 49.46 14.7402 49.8333 14.4202 50.14C14.1002 50.4467 13.7236 50.6 13.2902 50.6C12.8569 50.6 12.4802 50.4467 12.1602 50.14C11.8469 49.8333 11.6902 49.46 11.6902 49.02ZM16.7002 51.94C16.5536 52.0867 16.4802 52.2733 16.4802 52.5C16.4802 52.7267 16.5536 52.9167 16.7002 53.07C16.8469 53.2167 17.0302 53.29 17.2502 53.29C17.4702 53.29 17.6536 53.2167 17.8002 53.07C17.9469 52.9167 18.0202 52.7267 18.0202 52.5C18.0202 52.2733 17.9469 52.0867 17.8002 51.94C17.6536 51.7933 17.4702 51.72 17.2502 51.72C17.0302 51.72 16.8469 51.7933 16.7002 51.94ZM15.6502 52.5C15.6502 52.0667 15.8069 51.6967 16.1202 51.39C16.4402 51.0833 16.8169 50.93 17.2502 50.93C17.6836 50.93 18.0602 51.0833 18.3802 51.39C18.7002 51.6967 18.8602 52.0667 18.8602 52.5C18.8602 52.94 18.7002 53.3133 18.3802 53.62C18.0602 53.9267 17.6836 54.08 17.2502 54.08C16.8169 54.08 16.4402 53.9267 16.1202 53.62C15.8069 53.3133 15.6502 52.94 15.6502 52.5ZM13.4102 54H12.4902L17.1502 47.52H18.0502L13.4102 54Z" fill="#04A5C8"/>
<path d="M2.8 113.28C3.14667 113.273 3.43333 113.173 3.66 112.98C3.88667 112.787 4 112.533 4 112.22C4 111.927 3.89 111.68 3.67 111.48C3.45 111.28 3.16 111.18 2.8 111.18C2.44 111.18 2.15 111.28 1.93 111.48C1.71 111.68 1.6 111.927 1.6 112.22C1.6 112.533 1.71333 112.787 1.94 112.98C2.16667 113.173 2.45333 113.273 2.8 113.28ZM1.8 115.99C2.04667 116.197 2.38 116.3 2.8 116.3C3.22 116.3 3.55 116.197 3.79 115.99C4.03667 115.783 4.16 115.523 4.16 115.21C4.16 114.89 4.03667 114.627 3.79 114.42C3.55 114.207 3.22 114.1 2.8 114.1C2.38 114.1 2.04667 114.207 1.8 114.42C1.56 114.627 1.44 114.89 1.44 115.21C1.44 115.523 1.56 115.783 1.8 115.99ZM4.52 116.63C4.1 116.977 3.52667 117.15 2.8 117.15C2.07333 117.15 1.5 116.977 1.08 116.63C0.66 116.277 0.45 115.83 0.45 115.29C0.45 114.91 0.563333 114.58 0.79 114.3C1.02333 114.013 1.32 113.81 1.68 113.69C1.37333 113.577 1.12 113.383 0.92 113.11C0.72 112.83 0.62 112.517 0.62 112.17C0.62 111.643 0.826667 111.213 1.24 110.88C1.65333 110.54 2.17333 110.37 2.8 110.37C3.42667 110.37 3.94667 110.54 4.36 110.88C4.77333 111.213 4.98 111.643 4.98 112.17C4.98 112.51 4.88 112.82 4.68 113.1C4.48 113.38 4.22667 113.577 3.92 113.69C4.28 113.803 4.57333 114.003 4.8 114.29C5.03333 114.577 5.15 114.91 5.15 115.29C5.15 115.83 4.94 116.277 4.52 116.63ZM7.09687 111.46C6.95021 111.607 6.87687 111.793 6.87687 112.02C6.87687 112.247 6.95021 112.437 7.09687 112.59C7.24354 112.737 7.42687 112.81 7.64687 112.81C7.86687 112.81 8.05021 112.737 8.19687 112.59C8.34354 112.437 8.41688 112.247 8.41688 112.02C8.41688 111.793 8.34354 111.607 8.19687 111.46C8.05021 111.313 7.86687 111.24 7.64687 111.24C7.42687 111.24 7.24354 111.313 7.09687 111.46ZM6.04687 112.02C6.04687 111.587 6.20354 111.217 6.51687 110.91C6.83687 110.603 7.21354 110.45 7.64687 110.45C8.08021 110.45 8.45687 110.603 8.77687 110.91C9.09687 111.217 9.25687 111.587 9.25687 112.02C9.25687 112.46 9.09687 112.833 8.77687 113.14C8.45687 113.447 8.08021 113.6 7.64687 113.6C7.21354 113.6 6.83687 113.447 6.51687 113.14C6.20354 112.833 6.04687 112.46 6.04687 112.02ZM11.0569 114.94C10.9102 115.087 10.8369 115.273 10.8369 115.5C10.8369 115.727 10.9102 115.917 11.0569 116.07C11.2035 116.217 11.3869 116.29 11.6069 116.29C11.8269 116.29 12.0102 116.217 12.1569 116.07C12.3035 115.917 12.3769 115.727 12.3769 115.5C12.3769 115.273 12.3035 115.087 12.1569 114.94C12.0102 114.793 11.8269 114.72 11.6069 114.72C11.3869 114.72 11.2035 114.793 11.0569 114.94ZM10.0069 115.5C10.0069 115.067 10.1635 114.697 10.4769 114.39C10.7969 114.083 11.1735 113.93 11.6069 113.93C12.0402 113.93 12.4169 114.083 12.7369 114.39C13.0569 114.697 13.2169 115.067 13.2169 115.5C13.2169 115.94 13.0569 116.313 12.7369 116.62C12.4169 116.927 12.0402 117.08 11.6069 117.08C11.1735 117.08 10.7969 116.927 10.4769 116.62C10.1635 116.313 10.0069 115.94 10.0069 115.5ZM7.76687 117H6.84687L11.5069 110.52H12.4069L7.76687 117Z" fill="#C80462"/>
<path d="M40.78 164H39.82V159.43H38.25V158.74C38.69 158.733 39.06 158.62 39.36 158.4C39.66 158.173 39.8467 157.88 39.92 157.52H40.78V164ZM42.9342 159.85L41.9542 159.73C41.9476 159.67 41.9442 159.583 41.9442 159.47C41.9442 158.89 42.1476 158.397 42.5542 157.99C42.9609 157.577 43.5042 157.37 44.1842 157.37C44.8576 157.37 45.3909 157.563 45.7842 157.95C46.1776 158.33 46.3742 158.8 46.3742 159.36C46.3742 160.18 45.9676 160.847 45.1542 161.36L43.8742 162.18C43.4142 162.473 43.1509 162.777 43.0842 163.09H46.4142V164H41.8742C41.8876 163.453 42.0109 162.973 42.2442 162.56C42.4842 162.147 42.8742 161.767 43.4142 161.42L44.4942 160.72C45.0876 160.34 45.3842 159.89 45.3842 159.37C45.3842 159.05 45.2776 158.78 45.0642 158.56C44.8509 158.34 44.5509 158.23 44.1642 158.23C43.7576 158.23 43.4476 158.353 43.2342 158.6C43.0209 158.847 42.9142 159.167 42.9142 159.56C42.9142 159.62 42.9209 159.717 42.9342 159.85ZM48.3672 158.46C48.2205 158.607 48.1472 158.793 48.1472 159.02C48.1472 159.247 48.2205 159.437 48.3672 159.59C48.5139 159.737 48.6972 159.81 48.9172 159.81C49.1372 159.81 49.3205 159.737 49.4672 159.59C49.6139 159.437 49.6872 159.247 49.6872 159.02C49.6872 158.793 49.6139 158.607 49.4672 158.46C49.3205 158.313 49.1372 158.24 48.9172 158.24C48.6972 158.24 48.5139 158.313 48.3672 158.46ZM47.3172 159.02C47.3172 158.587 47.4739 158.217 47.7872 157.91C48.1072 157.603 48.4839 157.45 48.9172 157.45C49.3505 157.45 49.7272 157.603 50.0472 157.91C50.3672 158.217 50.5272 158.587 50.5272 159.02C50.5272 159.46 50.3672 159.833 50.0472 160.14C49.7272 160.447 49.3505 160.6 48.9172 160.6C48.4839 160.6 48.1072 160.447 47.7872 160.14C47.4739 159.833 47.3172 159.46 47.3172 159.02ZM52.3272 161.94C52.1805 162.087 52.1072 162.273 52.1072 162.5C52.1072 162.727 52.1805 162.917 52.3272 163.07C52.4739 163.217 52.6572 163.29 52.8772 163.29C53.0972 163.29 53.2805 163.217 53.4272 163.07C53.5739 162.917 53.6472 162.727 53.6472 162.5C53.6472 162.273 53.5739 162.087 53.4272 161.94C53.2805 161.793 53.0972 161.72 52.8772 161.72C52.6572 161.72 52.4739 161.793 52.3272 161.94ZM51.2772 162.5C51.2772 162.067 51.4339 161.697 51.7472 161.39C52.0672 161.083 52.4439 160.93 52.8772 160.93C53.3105 160.93 53.6872 161.083 54.0072 161.39C54.3272 161.697 54.4872 162.067 54.4872 162.5C54.4872 162.94 54.3272 163.313 54.0072 163.62C53.6872 163.927 53.3105 164.08 52.8772 164.08C52.4439 164.08 52.0672 163.927 51.7472 163.62C51.4339 163.313 51.2772 162.94 51.2772 162.5ZM49.0372 164H48.1172L52.7772 157.52H53.6772L49.0372 164Z" fill="#5A04C8"/>
<path d="M65.35 9.54V8.41L68.13 4.52H69.48V8.63H70.59V9.54H69.48V11H68.53V9.54H65.35ZM68.53 8.63V5.46L66.25 8.63H68.53ZM72.1945 5.46C72.0479 5.60667 71.9745 5.79333 71.9745 6.02C71.9745 6.24667 72.0479 6.43667 72.1945 6.59C72.3412 6.73667 72.5245 6.81 72.7445 6.81C72.9645 6.81 73.1479 6.73667 73.2945 6.59C73.4412 6.43667 73.5145 6.24667 73.5145 6.02C73.5145 5.79333 73.4412 5.60667 73.2945 5.46C73.1479 5.31333 72.9645 5.24 72.7445 5.24C72.5245 5.24 72.3412 5.31333 72.1945 5.46ZM71.1445 6.02C71.1445 5.58667 71.3012 5.21667 71.6145 4.91C71.9345 4.60333 72.3112 4.45 72.7445 4.45C73.1779 4.45 73.5545 4.60333 73.8745 4.91C74.1945 5.21667 74.3545 5.58667 74.3545 6.02C74.3545 6.46 74.1945 6.83333 73.8745 7.14C73.5545 7.44667 73.1779 7.6 72.7445 7.6C72.3112 7.6 71.9345 7.44667 71.6145 7.14C71.3012 6.83333 71.1445 6.46 71.1445 6.02ZM76.1545 8.94C76.0079 9.08667 75.9345 9.27333 75.9345 9.5C75.9345 9.72667 76.0079 9.91667 76.1545 10.07C76.3012 10.2167 76.4845 10.29 76.7045 10.29C76.9245 10.29 77.1079 10.2167 77.2545 10.07C77.4012 9.91667 77.4745 9.72667 77.4745 9.5C77.4745 9.27333 77.4012 9.08667 77.2545 8.94C77.1079 8.79333 76.9245 8.72 76.7045 8.72C76.4845 8.72 76.3012 8.79333 76.1545 8.94ZM75.1045 9.5C75.1045 9.06667 75.2612 8.69667 75.5745 8.39C75.8945 8.08333 76.2712 7.93 76.7045 7.93C77.1379 7.93 77.5145 8.08333 77.8345 8.39C78.1545 8.69667 78.3145 9.06667 78.3145 9.5C78.3145 9.94 78.1545 10.3133 77.8345 10.62C77.5145 10.9267 77.1379 11.08 76.7045 11.08C76.2712 11.08 75.8945 10.9267 75.5745 10.62C75.2612 10.3133 75.1045 9.94 75.1045 9.5ZM72.8645 11H71.9445L76.6045 4.52H77.5045L72.8645 11Z" fill="#0466C8"/>
<circle cx="87" cy="85" r="65" stroke="#0466C8" stroke-opacity="0.4" stroke-width="10"/>
<mask id="path-8-inside-1_26_184" fill="white">
<path d="M84.8572 26.852C84.7949 25.1618 86.1154 23.733 87.8066 23.7553C99.6735 23.9114 111.264 27.5136 121.153 34.1555C131.041 40.7975 138.759 50.1653 143.391 61.0919C144.051 62.6491 143.228 64.4118 141.64 64.9934C140.052 65.5749 138.301 64.7546 137.632 63.2011C133.45 53.4879 126.552 45.1606 117.737 39.24C108.923 33.3193 98.6054 30.0825 88.0321 29.8846C86.341 29.853 84.9195 28.5422 84.8572 26.852Z"/>
</mask>
<path d="M84.8572 26.852C84.7949 25.1618 86.1154 23.733 87.8066 23.7553C99.6735 23.9114 111.264 27.5136 121.153 34.1555C131.041 40.7975 138.759 50.1653 143.391 61.0919C144.051 62.6491 143.228 64.4118 141.64 64.9934C140.052 65.5749 138.301 64.7546 137.632 63.2011C133.45 53.4879 126.552 45.1606 117.737 39.24C108.923 33.3193 98.6054 30.0825 88.0321 29.8846C86.341 29.853 84.9195 28.5422 84.8572 26.852Z" stroke="#038A39" stroke-width="14" mask="url(#path-8-inside-1_26_184)"/>
<mask id="path-9-inside-2_26_184" fill="white">
<path d="M29.012 89.8144C27.3264 89.9543 25.8385 88.7009 25.783 87.0105C25.3933 75.1489 28.4586 63.4047 34.6388 53.2215C40.8191 43.0384 49.8221 34.8977 60.5241 29.7679C62.0493 29.0368 63.848 29.7781 64.502 31.3379C65.1559 32.8977 64.4171 34.6846 62.8959 35.4242C53.3853 40.0482 45.384 47.3221 39.875 56.3994C34.3659 65.4766 31.6069 75.9321 31.8955 86.5034C31.9416 88.1941 30.6976 89.6745 29.012 89.8144Z"/>
</mask>
<path d="M29.012 89.8144C27.3264 89.9543 25.8385 88.7009 25.783 87.0105C25.3933 75.1489 28.4586 63.4047 34.6388 53.2215C40.8191 43.0384 49.8221 34.8977 60.5241 29.7679C62.0493 29.0368 63.848 29.7781 64.502 31.3379C65.1559 32.8977 64.4171 34.6846 62.8959 35.4242C53.3853 40.0482 45.384 47.3221 39.875 56.3994C34.3659 65.4766 31.6069 75.9321 31.8955 86.5034C31.9416 88.1941 30.6976 89.6745 29.012 89.8144Z" stroke="#04A5C8" stroke-width="14" mask="url(#path-9-inside-2_26_184)"/>
<mask id="path-10-inside-3_26_184" fill="white">
<path d="M67.6401 30.1276C67.0774 28.5326 67.9124 26.7756 69.5335 26.2932C73.7283 25.0452 78.0449 24.2503 82.4092 23.9223C84.0958 23.7955 85.5019 25.1399 85.5442 26.8307C85.5865 28.5216 84.2488 29.9177 82.5629 30.0539C78.8409 30.3544 75.1589 31.0324 71.5739 32.0774C69.9501 32.5507 68.2029 31.7226 67.6401 30.1276Z"/>
</mask>
<path d="M67.6401 30.1276C67.0774 28.5326 67.9124 26.7756 69.5335 26.2932C73.7283 25.0452 78.0449 24.2503 82.4092 23.9223C84.0958 23.7955 85.5019 25.1399 85.5442 26.8307C85.5865 28.5216 84.2488 29.9177 82.5629 30.0539C78.8409 30.3544 75.1589 31.0324 71.5739 32.0774C69.9501 32.5507 68.2029 31.7226 67.6401 30.1276Z" stroke="#0466C8" stroke-width="14" mask="url(#path-10-inside-3_26_184)"/>
<mask id="path-11-inside-4_26_184" fill="white">
<path d="M75.3227 142.004C74.9832 143.661 73.3622 144.736 71.7243 144.315C58.6791 140.955 47.1016 133.386 38.7922 122.783C37.7489 121.452 38.0841 119.536 39.4658 118.56C40.8475 117.585 42.752 117.92 43.8027 119.246C51.2037 128.582 61.4345 135.271 72.9553 138.306C74.5909 138.737 75.6621 140.347 75.3227 142.004Z"/>
</mask>
<path d="M75.3227 142.004C74.9832 143.661 73.3622 144.736 71.7243 144.315C58.6791 140.955 47.1016 133.386 38.7922 122.783C37.7489 121.452 38.0841 119.536 39.4658 118.56C40.8475 117.585 42.752 117.92 43.8027 119.246C51.2037 128.582 61.4345 135.271 72.9553 138.306C74.5909 138.737 75.6621 140.347 75.3227 142.004Z" stroke="#5A04C8" stroke-width="14" mask="url(#path-11-inside-4_26_184)"/>
<mask id="path-12-inside-5_26_184" fill="white">
<path d="M40.0159 119.326C38.6502 120.324 36.7272 120.03 35.7989 118.616C31.2719 111.721 28.1841 103.981 26.7211 95.8636C26.4211 94.1991 27.6133 92.6618 29.2908 92.4454C30.9683 92.229 32.4949 93.4157 32.8042 95.0786C34.1237 102.174 36.8241 108.942 40.7517 114.998C41.6721 116.417 41.3816 118.328 40.0159 119.326Z"/>
</mask>
<path d="M40.0159 119.326C38.6502 120.324 36.7272 120.03 35.7989 118.616C31.2719 111.721 28.1841 103.981 26.7211 95.8636C26.4211 94.1991 27.6133 92.6618 29.2908 92.4454C30.9683 92.229 32.4949 93.4157 32.8042 95.0786C34.1237 102.174 36.8241 108.942 40.7517 114.998C41.6721 116.417 41.3816 118.328 40.0159 119.326Z" stroke="#C80462" stroke-width="14" mask="url(#path-12-inside-5_26_184)"/>
<mask id="path-13-inside-6_26_184" fill="white">
<path d="M140.684 62.5559C142.245 61.9035 144.047 62.6374 144.62 64.2285C148.093 73.8624 149.101 84.2304 147.527 94.3825C145.797 105.545 141.013 116.012 133.705 124.625C126.398 133.239 116.85 139.664 106.119 143.19C96.3586 146.396 85.965 147.092 75.894 145.235C74.2307 144.928 73.213 143.27 73.6024 141.624C73.9919 139.978 75.6409 138.969 77.3059 139.266C86.2757 140.868 95.5201 140.225 104.207 137.371C113.865 134.197 122.458 128.415 129.035 120.663C135.612 112.911 139.917 103.491 141.474 93.4443C142.875 84.4086 142.004 75.1829 138.961 66.5941C138.396 64.9998 139.124 63.2083 140.684 62.5559Z"/>
</mask>
<path d="M140.684 62.5559C142.245 61.9035 144.047 62.6374 144.62 64.2285C148.093 73.8624 149.101 84.2304 147.527 94.3825C145.797 105.545 141.013 116.012 133.705 124.625C126.398 133.239 116.85 139.664 106.119 143.19C96.3586 146.396 85.965 147.092 75.894 145.235C74.2307 144.928 73.213 143.27 73.6024 141.624C73.9919 139.978 75.6409 138.969 77.3059 139.266C86.2757 140.868 95.5201 140.225 104.207 137.371C113.865 134.197 122.458 128.415 129.035 120.663C135.612 112.911 139.917 103.491 141.474 93.4443C142.875 84.4086 142.004 75.1829 138.961 66.5941C138.396 64.9998 139.124 63.2083 140.684 62.5559Z" stroke="#C89104" stroke-width="14" mask="url(#path-13-inside-6_26_184)"/>
<circle cx="57.1334" cy="68.2" r="8.4" fill="#04A5C8" fill-opacity="0.2"/>
<path d="M60.7105 65.0089C60.6059 64.7396 60.313 64.5478 59.9679 64.5478H54.2157C53.8706 64.5478 53.583 64.7396 53.4732 65.0089L52.3855 67.7435V71.3957C52.3855 71.6467 52.6208 71.8522 52.9084 71.8522H53.4313C53.719 71.8522 53.9543 71.6467 53.9543 71.3957V70.9391H60.2294V71.3957C60.2294 71.6467 60.4647 71.8522 60.7523 71.8522H61.2752C61.5628 71.8522 61.7981 71.6467 61.7981 71.3957V67.7435L60.7105 65.0089ZM54.3988 65.4609H59.7797L60.3444 66.8807H53.834L54.3988 65.4609ZM60.7523 70.0261H53.4313V67.7435H60.7523V70.0261Z" fill="#04A5C8"/>
<path d="M54.7386 69.5696C55.1718 69.5696 55.523 69.263 55.523 68.8848C55.523 68.5066 55.1718 68.2 54.7386 68.2C54.3054 68.2 53.9542 68.5066 53.9542 68.8848C53.9542 69.263 54.3054 69.5696 54.7386 69.5696Z" fill="#04A5C8"/>
<path d="M59.4452 69.5696C59.8784 69.5696 60.2295 69.263 60.2295 68.8848C60.2295 68.5066 59.8784 68.2 59.4452 68.2C59.0119 68.2 58.6608 68.5066 58.6608 68.8848C58.6608 69.263 59.0119 69.5696 59.4452 69.5696Z" fill="#04A5C8"/>
<circle cx="116.4" cy="106.4" r="8.4" fill="#F4E9CD"/>
<path d="M119.803 108.873H111.652V109.833H121.252V108.873H119.803ZM120.772 108.393C120.643 106.439 119.212 104.841 117.335 104.452C117.383 104.337 117.412 104.207 117.412 104.073C117.412 103.545 116.98 103.113 116.452 103.113C115.924 103.113 115.492 103.545 115.492 104.073C115.492 104.207 115.521 104.337 115.569 104.452C113.692 104.841 112.262 106.439 112.132 108.393H120.772ZM116.452 105.311C117.868 105.311 119.078 106.19 119.572 107.428H113.332C113.827 106.19 115.036 105.311 116.452 105.311Z" fill="#C89104"/>
<circle cx="111.4" cy="53.4" r="8.4" fill="#038A39" fill-opacity="0.2"/>
<path fill-rule="evenodd" clip-rule="evenodd" d="M113.314 50.1483C113.162 50.0731 112.958 50.004 112.721 50.061C112.601 50.0899 112.496 50.1459 112.403 50.2145C111.457 49.9821 110.432 50.1099 109.611 50.5614C108.705 51.0598 108.04 51.9615 108.04 53.1868C108.04 54.0985 108.454 54.9662 109.193 55.5564V56.3162V56.7485L109.626 56.7544L110.025 56.7599L110.025 56.76H110.031H110.296V56.76L110.302 56.7599L110.688 56.7544L111.12 56.7483V56.3162V56.3019C111.303 56.3172 111.485 56.3185 111.664 56.3052V56.3162V56.7487L112.096 56.7544L112.511 56.7599L112.511 56.76H112.517H112.781V56.76L112.788 56.7599L113.158 56.7544L113.59 56.748V56.3162V55.5551C113.977 55.2442 114.287 54.8498 114.489 54.4259H114.774H115.2L115.212 54L115.257 52.4115L115.27 51.9649L114.823 51.9609L114.489 51.9579C114.31 51.5872 114.051 51.2421 113.765 50.9595C113.761 50.9147 113.754 50.8644 113.744 50.8117C113.727 50.7203 113.698 50.6037 113.642 50.491C113.588 50.3807 113.489 50.2354 113.314 50.1483ZM110.243 55.7903V55.8834H110.07V55.3357V55.1045L109.879 54.9739C109.256 54.5479 108.917 53.8816 108.917 53.1868C108.917 52.3215 109.37 51.6942 110.034 51.3294C110.71 50.9573 111.595 50.8682 112.384 51.1192L112.648 51.2031L112.837 51.0009C112.853 50.9836 112.867 50.9693 112.88 50.9575L112.883 50.972C112.891 51.0178 112.895 51.0642 112.897 51.1006C112.898 51.1183 112.899 51.1323 112.899 51.141L112.899 51.1497L112.899 51.1501L112.899 51.1505L112.899 51.1506L112.895 51.3496L113.044 51.4838C113.373 51.7785 113.653 52.167 113.783 52.5384L113.885 52.8291L114.192 52.8318L114.368 52.8334L114.348 53.5494H114.196H113.885L113.783 53.8432C113.635 54.2654 113.322 54.6852 112.903 54.9751L112.714 55.1057V55.3357V55.8834H112.54V55.7903V55.221L111.99 55.3666C111.635 55.4604 111.214 55.4638 110.78 55.3634L110.243 55.239V55.7903ZM112.854 50.8757L112.855 50.8774C112.855 50.8767 112.855 50.8763 112.855 50.876C112.854 50.8758 112.854 50.8757 112.854 50.8757ZM112.556 52.5891V52.5891C112.556 52.6134 112.549 52.6618 112.506 52.7091C112.459 52.762 112.398 52.7805 112.357 52.7805C112.319 52.7805 112.271 52.7655 112.232 52.7272C112.194 52.6895 112.173 52.6387 112.173 52.5891H112.357H112.539L112.357 52.589L112.173 52.589C112.173 52.5394 112.194 52.4886 112.232 52.4508C112.271 52.4126 112.319 52.3976 112.357 52.3976C112.398 52.3976 112.459 52.4161 112.506 52.4689C112.549 52.5162 112.556 52.5647 112.556 52.5891ZM112.357 52.0501C112.208 52.0501 112.064 52.1075 111.961 52.2233C111.863 52.3335 111.826 52.4688 111.826 52.5891C111.826 52.7094 111.863 52.8448 111.961 52.955C112.064 53.0707 112.208 53.128 112.357 53.128C112.658 53.128 112.904 52.8944 112.904 52.5892V52.5891C112.904 52.2839 112.658 52.0501 112.357 52.0501Z" fill="#038A39"/>
<circle cx="78.6001" cy="47.6667" r="8.4" fill="#CADDF1"/>
<path d="M82.4756 50.2165L79.1594 46.9003C79.4991 46.0457 79.3238 45.0377 78.6335 44.3438C77.7935 43.5038 76.486 43.4271 75.5547 44.1064L76.9572 45.5125L76.4386 46.0275L75.0398 44.6287C74.3605 45.5563 74.4372 46.8675 75.2772 47.7038C75.9565 48.3831 76.9462 48.5621 77.7935 48.2443L81.1206 51.5715C81.2631 51.7139 81.4932 51.7139 81.6356 51.5715L82.4756 50.7315C82.6217 50.5927 82.6217 50.3626 82.4756 50.2165ZM81.3799 50.8008L77.925 47.3459C77.7022 47.5102 77.4539 47.6088 77.1946 47.6454C76.6979 47.7184 76.1756 47.5687 75.7958 47.1888C75.4488 46.8455 75.2881 46.3854 75.3137 45.9325L76.4422 47.061L77.9907 45.5125L76.8622 44.384C77.3151 44.3584 77.7716 44.5191 78.1186 44.8624C78.513 45.2568 78.6627 45.801 78.5714 46.3087C78.5276 46.568 78.418 46.809 78.25 47.0245L81.7013 50.4758L81.3799 50.8008Z" fill="#0466C8"/>
<circle cx="74.8667" cy="123.267" r="8.4" fill="#5A04C8" fill-opacity="0.2"/>
<path d="M77.0581 121.075H76.3277C76.3277 120.268 75.6739 119.615 74.8668 119.615C74.0597 119.615 73.4059 120.268 73.4059 121.075H72.6755C72.2738 121.075 71.9451 121.404 71.9451 121.806V126.188C71.9451 126.59 72.2738 126.919 72.6755 126.919H77.0581C77.4599 126.919 77.7885 126.59 77.7885 126.188V121.806C77.7885 121.404 77.4599 121.075 77.0581 121.075ZM74.8668 120.345C75.2685 120.345 75.5972 120.674 75.5972 121.075H74.1364C74.1364 120.674 74.4651 120.345 74.8668 120.345ZM77.0581 126.188H72.6755V121.806H73.4059V122.536C73.4059 122.737 73.5703 122.901 73.7712 122.901C73.972 122.901 74.1364 122.737 74.1364 122.536V121.806H75.5972V122.536C75.5972 122.737 75.7616 122.901 75.9625 122.901C76.1633 122.901 76.3277 122.737 76.3277 122.536V121.806H77.0581V126.188Z" fill="#5A04C8"/>
<circle cx="53.4" cy="98.0667" r="8.4" fill="#C80462" fill-opacity="0.2"/>
<path d="M56.6765 99.4618V100.977C56.6765 101.182 56.5048 101.354 56.3003 101.343C55.2448 101.281 54.2551 100.966 53.3895 100.466C52.3925 99.8891 51.5671 99.0637 50.9901 98.0667C50.4861 97.2011 50.1756 96.2114 50.1135 95.1559C50.1026 94.9514 50.2742 94.7797 50.4788 94.7797H51.9944C52.1697 94.7797 52.3194 94.9039 52.3523 95.0719L52.6226 96.4159C52.6481 96.5364 52.608 96.6606 52.524 96.7446L51.6 97.6649C52.1222 98.578 52.8782 99.334 53.7913 99.8562L54.7116 98.9359C54.7993 98.8482 54.9234 98.8117 55.0403 98.8373L56.3807 99.1039C56.5523 99.1368 56.6765 99.2865 56.6765 99.4618ZM51.264 96.9674L51.8666 96.3648L51.6949 95.5102H50.8805C50.9426 96.0105 51.0741 96.4999 51.264 96.9674ZM55.9461 99.7613L55.0914 99.5896L54.4888 100.192C54.9563 100.382 55.4494 100.51 55.9461 100.576V99.7613Z" fill="#C80462"/>
</svg>
