<svg width="150" height="150" viewBox="0 0 150 150" fill="none" xmlns="http://www.w3.org/2000/svg">
<circle cx="75" cy="75" r="70" stroke="#0466C8" stroke-opacity="0.4" stroke-width="10"/>
<path d="M118.422 67.7211C119.426 73.7856 119.119 79.995 117.52 85.9306C115.922 91.8663 113.069 97.3902 109.155 102.13C105.24 106.87 100.355 110.715 94.8286 113.407C89.3021 116.098 83.2627 117.574 77.1176 117.733C70.9726 117.893 64.8647 116.734 59.2058 114.333C53.5468 111.932 48.4685 108.346 44.313 103.816C40.1575 99.2861 37.0216 93.9179 35.1166 88.0734C33.2117 82.2289 32.5819 76.0439 33.2699 69.9354L42.2077 70.942C41.6637 75.7728 42.1617 80.6641 43.6682 85.2861C45.1747 89.9081 47.6547 94.1534 50.9409 97.7358C54.2272 101.318 58.2433 104.154 62.7186 106.053C67.1938 107.952 72.0241 108.869 76.8838 108.742C81.7435 108.616 86.5197 107.449 90.8902 105.32C95.2607 103.192 99.124 100.151 102.22 96.4024C105.315 92.6541 107.571 88.2856 108.836 83.5916C110.1 78.8975 110.343 73.9869 109.549 69.1909L118.422 67.7211Z" fill="#B8CBDF"/>
<path d="M78.1734 74.2655H71.6061C71.5186 73.1272 71.4748 72.2954 71.4748 71.77C71.4748 67.742 73.248 64.4365 76.7943 61.8534L79.8153 59.6862C81.873 58.1976 82.9019 56.2931 82.9019 53.9726C82.9019 52.1338 82.2889 50.5795 81.063 49.3098C79.8371 47.9964 78.0859 47.3397 75.8092 47.3397C73.4888 47.3397 71.6718 48.0839 70.3584 49.5725C69.0449 51.0611 68.3882 52.8124 68.3882 54.8264C68.3882 56.0523 68.5195 57.0374 68.7822 57.7816L61.3612 57.2563C61.0985 56.3368 60.9671 55.3299 60.9671 54.2353C60.9671 50.6452 62.2806 47.471 64.9075 44.7127C67.5344 41.9107 71.1683 40.5097 75.8092 40.5097C80.4501 40.5097 84.1059 41.8012 86.7766 44.3844C89.4473 46.9675 90.7826 50.0541 90.7826 53.6442C90.7826 58.2414 88.5935 62.0942 84.2153 65.2027L81.3914 67.1729C79.2023 68.7052 78.1078 70.7849 78.1078 73.4118C78.1078 73.7183 78.1297 74.0029 78.1734 74.2655ZM71.5405 87.1374C70.6211 86.1742 70.1613 85.0359 70.1613 83.7224C70.1613 82.409 70.6211 81.2707 71.5405 80.3075C72.5037 79.3442 73.642 78.8626 74.9555 78.8626C76.2689 78.8626 77.3854 79.3442 78.3048 80.3075C79.268 81.2707 79.7496 82.409 79.7496 83.7224C79.7496 85.0359 79.268 86.1742 78.3048 87.1374C77.3854 88.0569 76.2689 88.5166 74.9555 88.5166C73.5982 88.5166 72.4599 88.0569 71.5405 87.1374Z" fill="#B8CBDF"/>
</svg>
