<svg xmlns="http://www.w3.org/2000/svg" width="30" height="30" viewBox="0 0 30 30" fill="none">
  <circle cx="15" cy="15" r="15" fill="#F4E9CD"/>
  <path d="M21.076 18.764H6.52173V20.4783H23.6646V18.764H21.076ZM22.8074 17.9068C22.576 14.4183 20.0217 11.564 16.6703 10.8697C16.756 10.664 16.8074 10.4325 16.8074 10.1925C16.8074 9.24969 16.036 8.47826 15.0932 8.47826C14.1503 8.47826 13.3789 9.24969 13.3789 10.1925C13.3789 10.4325 13.4303 10.664 13.516 10.8697C10.1646 11.564 7.6103 14.4183 7.37887 17.9068H22.8074ZM15.0932 12.404C17.6217 12.404 19.7817 13.9725 20.6646 16.184H9.52173C10.4046 13.9725 12.5646 12.404 15.0932 12.404Z" fill="#C89104"/>
</svg>