<svg xmlns="http://www.w3.org/2000/svg" width="30" height="30" viewBox="0 0 30 30" fill="none">
  <circle cx="15" cy="15" r="15" fill="#038A39" fill-opacity="0.2"/>
  <path fill-rule="evenodd" clip-rule="evenodd" d="M18.4162 9.84568C18.146 9.71131 17.7819 9.58793 17.3582 9.68967C17.1433 9.7413 16.9557 9.84137 16.7903 9.96382C15.1009 9.54881 13.2705 9.77708 11.8048 10.5833C10.1871 11.4732 8.99939 13.0834 8.99939 15.2715C8.99939 16.8995 9.73776 18.4489 11.0588 19.5029V20.8597V21.6316L11.8307 21.6422L12.5438 21.652L12.5438 21.6521H12.5546H13.0269V21.6522L13.038 21.652L13.7273 21.6422L14.4987 21.6313V20.8597V20.8342C14.8258 20.8615 15.1511 20.8638 15.47 20.8401V20.8597V21.632L16.2422 21.6423L16.9834 21.652L16.9834 21.6521H16.9937H17.4659V21.6522L17.4775 21.652L18.1389 21.6422L18.9099 21.6308V20.8597V19.5006C19.6001 18.9454 20.1537 18.2411 20.515 17.4841H21.0246H21.7854L21.8069 16.7236L21.8871 13.8871L21.9096 13.0895L21.1118 13.0824L20.515 13.0771C20.1958 12.415 19.7324 11.7988 19.2231 11.2941C19.215 11.2141 19.2031 11.1244 19.1856 11.0303C19.1552 10.867 19.1022 10.6588 19.0027 10.4575C18.9054 10.2605 18.7288 10.0011 18.4162 9.84568ZM12.9336 19.9206V20.0869H12.624V19.1088V18.6959L12.2832 18.4628C11.1708 17.7021 10.5646 16.5122 10.5646 15.2715C10.5646 13.7263 11.3749 12.6062 12.5592 11.9547C13.767 11.2903 15.3473 11.1311 16.7565 11.5793L17.2277 11.7292L17.5653 11.3681C17.5942 11.3372 17.6196 11.3117 17.6417 11.2906L17.6468 11.3165C17.662 11.3982 17.6696 11.4812 17.6731 11.5462C17.6748 11.5777 17.6754 11.6027 17.6756 11.6183L17.6756 11.6338L17.6756 11.6345L17.6756 11.6353L17.6756 11.6353L17.6684 11.9907L17.9353 12.2303C18.5215 12.7567 19.0218 13.4505 19.254 14.1136L19.4357 14.6327L19.9857 14.6376L20.3 14.6404L20.2638 15.9189H19.9926H19.4369L19.2538 16.4436C18.9906 17.1976 18.4321 17.9472 17.6826 18.4648L17.3447 18.6982V19.1088V20.0869H17.0351V19.9206V18.9041L16.0524 19.1641C15.4193 19.3316 14.6675 19.3376 13.8927 19.1582L12.9336 18.9362V19.9206ZM17.596 11.1445L17.5978 11.1475C17.5972 11.1464 17.5967 11.1456 17.5964 11.1451C17.5962 11.1446 17.596 11.1444 17.596 11.1445ZM17.064 14.2041V14.2041C17.064 14.2476 17.0502 14.334 16.975 14.4185C16.8909 14.5129 16.7819 14.5459 16.7074 14.5459C16.64 14.5459 16.5552 14.5192 16.4854 14.4508C16.4165 14.3835 16.3803 14.2927 16.3803 14.2041H16.7074H17.0324L16.7074 14.204L16.3803 14.2039C16.3803 14.1155 16.4165 14.0247 16.4855 13.9573C16.5553 13.8889 16.6401 13.8622 16.7074 13.8622C16.7817 13.8622 16.8908 13.8952 16.9749 13.9895C17.0502 14.0741 17.064 14.1606 17.064 14.2041ZM16.7074 13.2416C16.4421 13.2416 16.1852 13.3442 16.0011 13.5509C15.8258 13.7477 15.7597 13.9893 15.7597 14.2041C15.7597 14.419 15.8258 14.6607 16.0012 14.8575C16.1855 15.0641 16.4423 15.1665 16.7074 15.1665C17.2447 15.1665 17.6844 14.7493 17.6846 14.2043V14.2041C17.6846 13.6592 17.2449 13.2416 16.7074 13.2416Z" fill="#038A39"/>
</svg>